# xmcd
#
# Track frame offsets:
#	150
#	3708
#	18137
#	29975
#	46011
#	62564
#	81527
#	99223
#	124771
#	138554
#	151883
#	164274
#
# Disc length: 2437 seconds
#
# Revision: 0
# Processed by: cddbd v1.5.2PL0 Copyright (c) Steve Scherf et al.
# Submitted via: audiograbber 1.83.01
#
DISCID=9509830c
DTITLE=Cledus T. Judd - Boogity, Boogity
DYEAR=2007
DGENRE=Comedy
TTITLE0=Turn Your Radio On (F. Lee Brice)
TTITLE1=The Streak (F. Ray Stevens)
TTITLE2=Jeremiah Peabody's Polyunsaturated Quick-Dissolving Fast-Acting Pleasan
TTITLE2=t Tasting Green and Purple Pills
TTITLE3=It's Me Again, Margaret
TTITLE4=Gitarzan (F. Heidi Newfield)
TTITLE5=The Mississippi Squirrel Revival (F. Tyler Dean)
TTITLE6=Ahab the Arab (F. Phil Vassar)
TTITLE7=Shriner's Convention (F. Charlie Daniels)
TTITLE8=Misty (F. Vince Gill and Sonya Isaacs)
TTITLE9=Harry the Hairy Ape
TTITLE10=Would Jesus Wear a Rolex? (F. Joe Diffie)
TTITLE11=Everything Is Beautiful (F. Michael English, Erika Jo, Dobie Gray, And
TTITLE11=y Griggs, Rascal Flatts, Julie Roberts, Shedaisy, Phil Vassar, Darryl 
TTITLE11=Worley, Wynonna)
EXTD=A Tribute to the Comic Genius of Ray Stevens
EXTT0=
EXTT1=
EXTT2=
EXTT3=
EXTT4=
EXTT5=
EXTT6=
EXTT7=
EXTT8=
EXTT9=
EXTT10=
EXTT11=
PLAYORDER=
